<svg width="256" height="256" viewBox="0 0 256 256" fill="none" xmlns="http://www.w3.org/2000/svg">
<rect x="68.5" y="34.5" width="77.0481" height="150.368" fill="white"/>
<path d="M145.608 23.871C148.369 23.871 150.607 26.101 150.608 28.8622V122.407C150.608 147.973 134.629 195.91 80.5677 195.91C26.5059 195.91 10.5266 150.636 10.5266 122.407V28.8524C10.5267 26.091 12.7653 23.871 15.5266 23.871H145.608ZM80.5677 177.801C101.293 177.801 113.469 169.028 121.083 158.278C129.299 146.679 132.498 132.133 132.498 122.407V41.9803H80.5677V177.801Z" fill="#8994F2"/>
<path d="M221.896 46.2414C223.488 46.2414 225.014 46.8735 226.139 47.9986L243.716 65.5748C244.841 66.7 245.473 68.2262 245.473 69.8175V181.528C245.473 184.47 243.088 186.856 240.146 186.856H149.067C146.126 186.856 143.741 184.47 143.741 181.528V51.5675C143.741 48.626 146.126 46.2414 149.067 46.2414H221.896Z" fill="#CAC18F"/>
<path d="M214.048 55.5624V70.6691C214.048 73.4305 216.286 75.6691 219.048 75.6691H236.818" stroke="#AF906A" stroke-width="3" stroke-linecap="round"/>
<path d="M195.74 68.6118C197.332 68.6118 198.858 69.2439 199.983 70.369L217.56 87.9452C218.685 89.0704 219.317 90.5966 219.317 92.1879V203.899C219.317 206.84 216.932 209.226 213.99 209.226H122.911C119.97 209.226 117.585 206.84 117.585 203.899V73.9379C117.585 70.9964 119.97 68.6118 122.911 68.6118H195.74Z" fill="#DCD192"/>
<path d="M187.892 77.9328V93.0395C187.892 95.8009 190.13 98.0395 192.892 98.0395H210.662" stroke="#AF906A" stroke-width="3" stroke-linecap="round"/>
<path d="M172.837 91.5148C174.429 91.5148 175.955 92.1469 177.08 93.272L194.657 110.848C195.782 111.973 196.414 113.5 196.414 115.091V226.802C196.414 229.744 194.029 232.129 191.087 232.129H100.008C97.0665 232.129 94.6819 229.743 94.6819 226.802V96.8409C94.682 93.8994 97.0665 91.5148 100.008 91.5148H172.837Z" fill="#EADD98"/>
<path d="M164.989 100.836V115.942C164.989 118.704 167.227 120.942 169.989 120.942H187.759" stroke="#AF906A" stroke-width="3" stroke-linecap="round"/>
<path d="M165.926 201.268C165.478 199.926 165.015 198.552 164.535 197.146C164.056 195.708 163.593 194.349 163.145 193.071C162.73 191.761 162.362 190.626 162.043 189.668C161.723 188.709 161.5 188.038 161.372 187.654C161.116 186.855 161.26 186.184 161.803 185.641C162.346 185.098 163.401 184.826 164.967 184.826C166.022 184.826 166.804 184.986 167.316 185.305C167.827 185.593 168.147 185.896 168.275 186.216C168.434 186.504 168.514 186.648 168.514 186.648L170.528 194.893L170.863 197.673L171.63 193.79C171.63 193.79 171.71 193.566 171.87 193.119C172.03 192.64 172.237 192.064 172.493 191.393C172.749 190.69 173.004 189.987 173.26 189.284C173.516 188.549 173.739 187.926 173.931 187.414C174.315 186.392 174.826 185.721 175.465 185.401C176.136 185.05 177.303 184.906 178.964 184.97C179.795 185.002 180.402 185.161 180.786 185.449C181.169 185.705 181.393 186.008 181.457 186.36C181.553 186.679 181.569 186.967 181.505 187.223C181.473 187.478 181.457 187.606 181.457 187.606L174.698 201.987C174.698 201.987 174.57 202.195 174.315 202.61C174.059 202.994 173.627 203.393 173.02 203.809C172.445 204.224 171.614 204.432 170.528 204.432C169.633 204.432 168.882 204.272 168.275 203.953C167.699 203.633 167.236 203.266 166.884 202.85C166.533 202.435 166.277 202.067 166.117 201.748C165.99 201.428 165.926 201.268 165.926 201.268Z" fill="#2CDAAC"/>
<path d="M144.13 204.432C144.13 204.432 143.922 204.432 143.507 204.432C143.091 204.432 142.612 204.368 142.069 204.24C141.557 204.112 141.094 203.857 140.678 203.473C140.263 203.09 140.023 202.53 139.959 201.795C139.927 201.188 139.864 200.325 139.768 199.207C139.672 198.088 139.56 196.874 139.432 195.564C139.336 194.221 139.24 192.959 139.144 191.777C139.049 190.562 138.969 189.572 138.905 188.805C138.841 188.038 138.809 187.654 138.809 187.654C138.809 187.654 138.825 187.526 138.857 187.271C138.889 186.983 139.001 186.663 139.192 186.312C139.416 185.96 139.784 185.641 140.295 185.353C140.838 185.066 141.589 184.906 142.548 184.874C143.507 184.842 144.258 184.938 144.801 185.161C145.344 185.385 145.728 185.657 145.951 185.976C146.207 186.264 146.351 186.536 146.383 186.791C146.447 187.015 146.479 187.127 146.479 187.127C146.479 187.127 146.766 186.983 147.342 186.695C147.949 186.376 148.716 186.056 149.643 185.737C150.601 185.417 151.608 185.225 152.663 185.161C152.822 185.161 153.126 185.161 153.573 185.161C154.053 185.161 154.564 185.273 155.107 185.497C155.683 185.689 156.242 186.072 156.785 186.647C157.36 187.223 157.84 188.07 158.223 189.188C158.607 190.275 158.83 191.713 158.894 193.502C158.99 195.739 159.054 197.577 159.086 199.015C159.15 200.453 159.102 201.572 158.942 202.371C158.814 203.138 158.495 203.681 157.984 204.001C157.504 204.288 156.737 204.432 155.683 204.432C154.66 204.432 153.909 204.288 153.43 204.001C152.95 203.713 152.647 203.377 152.519 202.994C152.391 202.578 152.327 202.211 152.327 201.891C152.327 201.7 152.359 201.188 152.423 200.357C152.487 199.494 152.535 198.52 152.567 197.433C152.599 196.315 152.583 195.228 152.519 194.174C152.487 193.087 152.359 192.208 152.135 191.537C151.944 190.834 151.624 190.498 151.177 190.53C150.633 190.562 150.122 190.77 149.643 191.154C149.195 191.505 148.796 191.921 148.444 192.4C148.093 192.847 147.821 193.247 147.629 193.598C147.437 193.918 147.342 194.078 147.342 194.078L147.821 201.316C147.821 201.316 147.821 201.476 147.821 201.795C147.821 202.115 147.725 202.483 147.533 202.898C147.342 203.281 146.974 203.633 146.431 203.953C145.92 204.272 145.153 204.432 144.13 204.432Z" fill="#2CDAAC"/>
<path d="M134.905 189.955C134.809 191.553 134.361 192.847 133.562 193.838C132.764 194.797 131.789 195.532 130.638 196.043C129.52 196.522 128.401 196.858 127.283 197.05C126.164 197.21 125.222 197.289 124.455 197.289C123.72 197.289 123.352 197.289 123.352 197.289C123.544 198.408 123.815 199.207 124.167 199.686C124.518 200.166 124.902 200.437 125.317 200.501C125.765 200.565 126.18 200.533 126.564 200.405C126.947 200.246 127.251 200.07 127.475 199.878C127.73 199.686 127.858 199.59 127.858 199.59C127.858 199.59 128.034 199.447 128.385 199.159C128.737 198.871 129.28 198.6 130.015 198.344C130.782 198.056 131.741 197.913 132.891 197.913C134.202 197.913 135.08 198.088 135.528 198.44C136.007 198.759 136.231 199.143 136.199 199.59C136.199 200.006 136.103 200.389 135.911 200.741C135.752 201.06 135.672 201.22 135.672 201.22C135.672 201.22 135.528 201.38 135.24 201.7C134.985 201.987 134.505 202.339 133.802 202.754C133.099 203.17 132.124 203.553 130.878 203.905C129.632 204.224 128.034 204.4 126.084 204.432C124.199 204.464 122.617 204.208 121.339 203.665C120.06 203.122 119.006 202.419 118.175 201.556C117.344 200.661 116.705 199.734 116.257 198.775C115.842 197.785 115.538 196.874 115.347 196.043C115.187 195.18 115.107 194.509 115.107 194.03C115.107 193.55 115.139 192.927 115.203 192.16C115.299 191.393 115.506 190.594 115.826 189.763C116.178 188.901 116.705 188.086 117.408 187.319C118.111 186.552 119.07 185.928 120.284 185.449C121.53 184.97 123.112 184.714 125.03 184.682C127.427 184.65 129.296 184.858 130.638 185.305C131.981 185.753 132.955 186.296 133.562 186.935C134.17 187.574 134.537 188.181 134.665 188.757C134.825 189.332 134.905 189.731 134.905 189.955ZM122.681 193.982C124.63 193.822 126.084 193.407 127.043 192.735C128.002 192.064 128.561 191.313 128.721 190.482C128.881 189.652 128.721 188.948 128.242 188.373C127.794 187.766 127.107 187.494 126.18 187.558C125.253 187.59 124.55 187.942 124.071 188.613C123.592 189.252 123.256 190.003 123.064 190.866C122.873 191.697 122.761 192.432 122.729 193.071C122.697 193.678 122.681 193.982 122.681 193.982Z" fill="#2CDAAC"/>
<path d="M109.599 204.432C108.705 204.432 107.826 204.288 106.963 204.001C106.132 203.713 105.669 203.186 105.573 202.419C105.477 202.003 105.397 201.604 105.333 201.22C105.269 200.837 105.397 200.485 105.717 200.166C106.164 199.686 106.819 199.367 107.682 199.207C108.545 199.047 109.424 199.031 110.319 199.159C111.213 199.287 111.932 199.526 112.476 199.878C112.859 200.134 113.115 200.469 113.243 200.885C113.37 201.268 113.45 201.668 113.482 202.083C113.578 202.658 113.418 203.122 113.003 203.473C112.587 203.825 112.06 204.08 111.421 204.24C110.782 204.368 110.175 204.432 109.599 204.432Z" fill="#2CDAAC"/>
</svg>
