<svg width="256" height="256" viewBox="0 0 256 256" fill="none" xmlns="http://www.w3.org/2000/svg">
<path fill-rule="evenodd" clip-rule="evenodd" d="M188.362 136.52C188.686 133.921 188.93 131.322 188.93 128.561C188.93 125.8 188.686 123.201 188.362 120.602L205.498 107.201C207.041 105.983 207.447 103.79 206.473 102.003L190.23 73.9025C189.255 72.1158 187.062 71.4661 185.275 72.1158L165.053 80.2374C160.829 76.9888 156.281 74.3086 151.327 72.2782L148.241 50.7559C147.997 48.8067 146.292 47.3448 144.261 47.3448H111.775C109.744 47.3448 108.039 48.8067 107.795 50.7559L104.709 72.2782C99.7547 74.3086 95.2066 77.07 90.9833 80.2374L70.7605 72.1158C68.8925 71.3848 66.7809 72.1158 65.8063 73.9025L49.5631 102.003C48.5073 103.79 48.9946 105.983 50.5377 107.201L67.6743 120.602C67.3494 123.201 67.1058 125.881 67.1058 128.561C67.1058 131.241 67.3494 133.921 67.6743 136.52L50.5377 149.921C48.9946 151.139 48.5885 153.332 49.5631 155.119L65.8063 183.22C66.7809 185.006 68.9738 185.656 70.7605 185.006L90.9833 176.885C95.2066 180.133 99.7547 182.813 104.709 184.844L107.795 206.366C108.039 208.315 109.744 209.777 111.775 209.777H144.261C146.292 209.777 147.997 208.315 148.241 206.366L151.327 184.844C156.281 182.813 160.829 180.052 165.053 176.885L185.275 185.006C187.143 185.737 189.255 185.006 190.23 183.22L206.473 155.119C207.447 153.332 207.041 151.139 205.498 149.921L188.362 136.52ZM128.018 156.987C112.343 156.987 99.5923 144.236 99.5923 128.561C99.5923 112.886 112.343 100.135 128.018 100.135C143.693 100.135 156.444 112.886 156.444 128.561C156.444 144.236 143.693 156.987 128.018 156.987Z" fill="black"/>
</svg>
