<svg width="256" height="256" viewBox="0 0 256 256" fill="none" xmlns="http://www.w3.org/2000/svg">
<g clip-path="url(#clip0_1_352)">
<path fill-rule="evenodd" clip-rule="evenodd" d="M128 23C185.991 23 233 71.1943 233 130.656C233 178.21 202.949 218.552 161.253 232.8C155.93 233.861 154.04 230.499 154.04 227.632C154.04 224.083 154.166 212.491 154.166 198.085C154.166 188.047 150.806 181.496 147.037 178.157C170.42 175.49 194.99 166.386 194.99 125.037C194.99 113.277 190.916 103.68 184.175 96.1411C185.267 93.4216 188.868 82.4715 183.146 67.6455C183.146 67.6455 174.347 64.7608 154.302 78.6838C145.913 76.3003 136.925 75.1011 128 75.0591C119.075 75.1011 110.098 76.3003 101.719 78.6838C81.653 64.7608 72.833 67.6455 72.833 67.6455C67.1315 82.4715 70.733 93.4216 71.8145 96.1411C65.105 103.68 60.9995 113.277 60.9995 125.037C60.9995 166.281 85.517 175.525 108.838 178.244C105.835 180.932 103.115 185.674 102.17 192.635C96.185 195.386 80.981 200.148 71.615 183.694C71.615 183.694 66.0605 173.35 55.5185 172.594C55.5185 172.594 45.281 172.458 54.8045 179.136C54.8045 179.136 61.682 182.444 66.4595 194.886C66.4595 194.886 72.623 214.101 101.834 207.591C101.887 216.589 101.981 225.07 101.981 227.632C101.981 230.478 100.049 233.808 94.8095 232.81C53.0825 218.583 23 178.221 23 130.656C23 71.1943 70.019 23 128 23Z" fill="currentColor"/>
</g>
<defs>
<clipPath id="clip0_1_352">
<rect width="210" height="210" fill="white" transform="translate(23 23)"/>
</clipPath>
</defs>
</svg>
