<svg width="256" height="256" viewBox="0 0 256 256" fill="none" xmlns="http://www.w3.org/2000/svg">
<path d="M128 70.0625C128 87.8391 113.589 102.25 95.8125 102.25C78.0359 102.25 63.625 87.8391 63.625 70.0625C63.625 52.2859 78.0359 37.875 95.8125 37.875C113.589 37.875 128 52.2859 128 70.0625Z" />
<path d="M63.625 128C42.2931 128 25 145.293 25 166.625V218.125H128V128H63.625Z" />
<path d="M192.375 128H153.75V218.125H231V166.625C231 145.293 213.708 128 192.375 128Z" />
<path d="M179.5 102.25C193.722 102.25 205.25 90.7213 205.25 76.5C205.25 62.2787 193.722 50.75 179.5 50.75C165.278 50.75 153.75 62.2787 153.75 76.5C153.75 90.7213 165.278 102.25 179.5 102.25Z" />
</svg>
