<svg width="256" height="256" viewBox="0 0 256 256" fill="none" xmlns="http://www.w3.org/2000/svg">
<path fill-rule="evenodd" clip-rule="evenodd" d="M144.296 56.8745C145.89 56.8747 147.419 57.5095 148.544 58.6382L173.644 83.8081C174.765 84.9328 175.396 86.4563 175.396 88.0444V240.904C175.396 244.905 172.16 248.149 168.17 248.15H44.6226C40.6326 248.15 37.3981 244.905 37.3979 240.904V64.1196C37.3981 60.1184 40.6326 56.8747 44.6226 56.8745H144.296ZM130.297 74.4946C128.933 74.4947 127.827 75.6011 127.827 76.9653V100.199C127.827 103.837 130.777 106.787 134.416 106.787H161.184C162.548 106.786 163.655 105.68 163.655 104.316C163.654 102.952 162.548 101.846 161.184 101.845H134.416C133.506 101.845 132.768 101.108 132.768 100.199V76.9653C132.768 75.6012 131.661 74.4949 130.297 74.4946Z" />
<path d="M164.249 32.9819C166.452 33.0917 168.542 34.0171 170.106 35.5854L194.272 59.8179L194.575 60.1382C196.047 61.7685 196.87 63.8917 196.87 66.1011V210.135L196.866 210.42C196.717 216.293 191.993 221.045 186.111 221.195L185.826 221.199H179.143V212.687H185.826L185.955 212.684C187.24 212.618 188.288 211.581 188.355 210.268L188.359 210.135V66.1011C188.359 66.0253 188.336 65.9506 188.293 65.8872L188.245 65.8286L164.08 41.5952C164.025 41.5405 163.955 41.5037 163.881 41.4888L163.806 41.4819H69.7437C68.3563 41.4822 67.2105 42.6134 67.2104 44.0337V53.2173H58.6987V44.0337C58.6988 37.9351 63.6333 32.9705 69.7437 32.9702H163.806L164.249 32.9819Z" />
<path d="M185.981 7.86182C188.184 7.97174 190.275 8.89685 191.839 10.4653L216.004 34.6978L216.307 35.0181C217.779 36.6483 218.602 38.7717 218.602 40.981V185.015L218.598 185.3C218.449 191.173 213.725 195.925 207.843 196.075L207.558 196.079H200.875V187.567H207.558L207.687 187.564C208.972 187.498 210.021 186.46 210.087 185.147L210.091 185.015V40.981C210.091 40.9054 210.068 40.8304 210.026 40.7671L209.978 40.7085L185.812 16.4751C185.757 16.4204 185.687 16.3836 185.614 16.3687L185.539 16.3618H91.4761C90.0885 16.3618 88.9429 17.4931 88.9429 18.9136V28.0972H80.4321V18.9136C80.4322 12.8148 85.3655 7.8501 91.4761 7.8501H185.539L185.981 7.86182Z" />
</svg>
